<svg version="1.1" id="Layer_1" xmlns="http://www.w3.org/2000/svg" xmlns:xlink="http://www.w3.org/1999/xlink" x="0px" y="0px"
	 width="220" height="220" viewBox="0 0 1024 1024" enable-background="new 0 0 1024 1024" xml:space="preserve">
<path fill="#000000" opacity="1.000000" stroke="none"
	d="
M1.000001,485.468658
	C2.150768,473.930450 3.105576,462.836273 4.490689,451.796143
	C8.014855,423.706451 13.954713,396.125336 21.737263,368.893555
	C29.773073,340.775604 40.624035,313.761383 53.265701,287.490509
	C66.364601,260.269470 82.358101,234.733597 100.310944,210.409317
	C133.941010,164.843964 173.924515,125.922043 220.381561,93.470573
	C255.824692,68.712624 293.752350,48.984756 334.217407,33.892582
	C366.294220,21.928946 399.277191,13.556179 432.986877,7.904191
	C467.598541,2.100973 502.505646,0.299101 537.490112,2.013767
	C571.086426,3.660394 604.236084,8.861631 636.947815,16.959995
	C669.713318,25.071671 701.340576,36.271290 731.847046,50.618729
	C792.587585,79.185539 845.445435,118.472328 890.857788,167.879669
	C914.044922,193.106583 934.406555,220.418594 952.157715,249.694000
	C982.044373,298.983459 1002.440125,351.997101 1014.471436,408.320374
	C1019.407043,431.425537 1022.327271,454.801300 1024.847290,478.634766
	C1025.000000,502.020905 1025.000000,525.041809 1024.854980,548.903259
	C1022.186951,575.209778 1018.902222,600.546631 1013.339966,625.572632
	C1002.836914,672.828735 986.166260,717.798950 962.912415,760.199280
	C938.264587,805.141296 907.359314,845.401794 870.684082,881.315002
	C848.222595,903.309875 823.837463,922.867554 797.890320,940.419617
	C757.657104,967.635559 714.108276,988.165955 667.732788,1002.668213
	C640.542114,1011.171143 612.907898,1017.705383 584.652771,1021.511108
	C576.100342,1022.662903 567.550842,1023.836365 559.000000,1025.000000
	C528.645752,1025.000000 498.291534,1025.000000 467.122009,1024.822021
	C461.514160,1024.133423 456.704742,1023.745911 451.931854,1023.091431
	C425.401031,1019.453552 399.161926,1014.430298 373.339783,1007.199402
	C332.550568,995.777405 293.656616,979.667542 257.158875,958.354858
	C202.747421,926.581421 155.174637,886.546509 115.565628,837.269470
	C88.842110,804.023071 65.942627,768.464478 48.211658,729.600159
	C34.775375,700.149170 23.973465,669.813416 16.137957,638.401917
	C10.982165,617.733093 6.919331,596.870239 4.486311,575.707031
	C3.196301,564.486084 2.154078,553.236572 0.999999,542.000000
	C1.000000,523.312439 1.000000,504.624878 1.000001,485.468658
M986.547058,388.911987
	C983.373352,378.224579 980.662842,367.372925 976.940918,356.879944
	C964.776428,322.584656 949.752258,289.647186 930.520630,258.621063
	C913.705444,231.493378 895.007385,205.904846 873.102844,182.662369
	C851.935730,160.202316 829.556824,139.113113 804.608948,120.847687
	C764.009949,91.123314 720.055664,67.717316 672.476196,51.347836
	C647.931396,42.903316 622.854004,36.366150 597.190491,32.029446
	C566.276794,26.805550 535.243713,24.359190 503.878357,24.996893
	C480.530304,25.471598 457.420868,27.601473 434.359985,31.181063
	C396.498505,37.058048 360.001770,47.725838 324.736725,62.417850
	C288.015381,77.716606 253.659729,97.391151 221.595718,121.006027
	C195.347931,140.337311 171.871323,162.665161 149.787735,186.575974
	C125.026176,213.386337 104.368423,243.110733 86.401306,274.758881
	C65.078201,312.318451 49.408714,352.170593 38.619114,393.977325
	C31.242964,422.557922 26.764505,451.658264 24.673912,481.008789
	C23.651445,495.363464 23.641413,509.893188 23.879259,524.389282
	C24.311806,550.751648 26.977465,576.836853 31.699251,602.677917
	C42.304428,660.717163 63.141834,714.949951 93.332634,765.662476
	C113.899590,800.209473 138.452438,831.623901 166.907959,859.918945
	C184.022507,876.936951 201.972214,893.090027 221.591599,907.298157
	C246.732498,925.505005 273.099762,941.576111 301.063751,955.122864
	C341.929169,974.919373 384.719299,988.461853 429.402039,996.335205
	C454.855103,1000.820190 480.500092,1002.961304 506.290039,1003.592102
	C522.439514,1003.987061 538.545959,1002.926758 554.653748,1001.736450
	C573.252319,1000.362061 591.718750,997.852112 609.917053,994.064209
	C634.842896,988.875977 659.325134,981.961975 683.268860,973.063171
	C719.518677,959.590759 753.547729,941.887268 785.729614,920.611084
	C814.021973,901.906372 839.557617,879.876099 863.295410,855.628113
	C885.988464,832.447205 906.273010,807.460754 923.845642,780.194885
	C940.679626,754.075073 955.204529,726.733826 966.851868,697.975098
	C979.740967,666.150330 989.259338,633.289124 995.125916,599.372620
	C999.328247,575.077637 1001.777893,550.624756 1002.537537,526.035339
	C1003.174683,505.414154 1001.955322,484.830994 999.933716,464.255676
	C997.455139,439.029572 992.654785,414.289215 986.547058,388.911987
z"/>
<path fill="#000000" opacity="1.000000" stroke="none"
	d="
M749.725281,374.602692
	C725.257141,415.930054 698.893799,455.516388 670.271912,493.658325
	C642.587524,530.551086 615.738098,568.070374 588.515930,605.310059
	C584.585938,610.686218 580.514954,615.963318 576.720093,621.432556
	C574.887817,624.073181 572.431213,624.206116 569.703003,624.202576
	C552.038879,624.179565 534.374695,624.184448 516.710571,624.185852
	C445.554077,624.191406 374.397583,624.204346 303.241089,624.177307
	C301.344574,624.176636 299.234375,624.858765 296.837769,622.432922
	C347.568726,574.871887 398.227173,527.378845 449.314453,479.483765
	C440.841064,473.847595 432.372437,469.347656 423.874603,464.888458
	C406.304016,455.668396 387.249237,449.707520 369.731293,440.421448
	C339.392181,424.338959 313.886322,402.583801 293.579010,374.766418
	C277.844910,353.213501 256.915405,339.068512 230.873840,333.186737
	C209.420944,328.341400 190.113281,319.015106 171.748627,307.293762
	C165.293320,303.173645 158.665787,299.322449 152.095520,295.384094
	C150.818237,294.618469 149.391235,294.077118 148.500610,291.876587
	C166.943024,291.876587 185.102768,291.876587 203.262512,291.876587
	C203.355042,291.517242 203.447586,291.157898 203.540131,290.798553
	C194.575119,285.168793 185.610107,279.539032 176.645081,273.909271
	C176.758606,273.423828 176.872116,272.938385 176.985626,272.452942
	C197.288925,272.452942 217.592224,272.452942 237.895523,272.452942
	C238.049957,271.898529 238.204391,271.344147 238.358826,270.789734
	C226.424271,263.888123 214.489700,256.986511 202.572922,250.095184
	C203.594498,248.088165 204.905334,248.654617 205.970901,248.654419
	C309.456055,248.634262 412.941254,248.653214 516.426331,248.550751
	C519.561646,248.547653 521.250671,249.839081 522.969788,252.060257
	C542.130188,276.816864 561.342712,301.533112 580.549744,326.253540
	C584.023315,330.724243 587.768311,335.005432 590.961914,339.666077
	C593.825928,343.845825 595.888184,342.412537 598.793640,339.730225
	C619.959656,320.190247 641.104797,300.623596 662.526184,281.365417
	C680.862061,264.881287 702.313171,254.254333 726.436157,249.092056
	C728.047058,248.747330 729.742065,248.678909 731.398010,248.678116
	C778.724609,248.655701 826.051147,248.653763 873.377747,248.679779
	C874.810181,248.680573 876.360474,248.239502 877.735474,249.322632
	C877.533997,251.141983 875.905396,251.549911 874.712952,252.277969
	C853.531494,265.210785 832.317200,278.089783 811.138367,291.026855
	C800.401550,297.585358 792.838562,307.117218 785.481567,317.164062
	C772.171692,335.340302 759.886902,354.070526 749.725281,374.602692
M413.111328,545.641602
	C393.778870,563.683777 374.446411,581.725952 354.177734,600.641846
	C356.871429,600.826538 357.857452,600.953186 358.843475,600.953308
	C425.175659,600.958740 491.507904,600.924133 557.839905,601.027283
	C561.671814,601.033264 563.920593,599.541321 566.059326,596.598938
	C582.217468,574.369263 598.668579,552.351196 614.707336,530.036377
	C640.658081,493.930969 668.600525,459.256104 692.712830,421.833710
	C704.620850,403.352448 716.917969,385.065308 727.722351,365.946289
	C737.478027,348.683075 746.670105,331.108185 758.360657,315.064026
	C767.541870,302.463623 775.518066,288.797913 788.225891,279.091187
	C791.143738,276.862457 793.944397,274.480286 797.719971,271.422913
	C775.897888,271.422913 755.416748,271.414429 734.935608,271.445343
	C733.784241,271.447083 732.627869,271.743256 731.483154,271.953217
	C708.249023,276.213501 689.115784,288.028687 672.051453,303.863983
	C649.220398,325.050690 626.272522,346.112732 603.233765,367.073334
	C599.475403,370.492706 596.156860,374.530151 591.798584,377.075165
	C589.496704,376.047058 588.587036,374.175232 587.384216,372.633301
	C562.276855,340.447937 537.163391,308.267120 512.159058,276.001801
	C509.576569,272.669373 506.770538,271.305145 502.471069,271.313202
	C433.305695,271.442505 364.140045,271.404266 294.974426,271.404083
	C292.798798,271.404083 290.623169,271.404083 288.447540,271.404083
	C297.793488,277.031311 307.275360,281.423645 317.240570,284.709229
	C324.035187,286.949463 330.932220,288.958313 337.281006,292.331268
	C360.601288,304.720703 379.316498,322.782715 396.784607,342.061462
	C414.484070,361.595520 435.201416,376.860535 458.171051,389.412018
	C478.902252,400.740234 501.031952,408.467590 523.539673,415.286682
	C530.158203,417.291870 536.703186,419.539978 542.927429,421.561646
	C543.340332,423.401947 542.626343,424.124054 541.893555,424.808624
	C520.596497,444.702820 499.256927,464.551697 478.004211,484.493134
	C456.504364,504.666443 435.089691,524.930542 413.111328,545.641602
M355.878326,377.596252
	C357.366241,378.930084 358.852112,380.266205 360.342346,381.597443
	C377.211060,396.665558 395.368774,410.273010 416.194397,418.911163
	C437.171356,427.612061 458.045074,436.136261 476.979858,448.831085
	C478.166229,449.626495 479.596649,450.989929 481.026367,449.683899
	C487.214813,444.030579 493.283264,438.245972 499.790375,432.138336
	C492.069244,429.324310 485.313751,427.020569 478.676300,424.415985
	C448.817474,412.699188 421.397766,396.898987 397.354492,375.501556
	C383.531799,363.199951 372.267670,348.366730 358.276611,336.208466
	C345.034637,324.701141 331.805908,313.397369 314.457520,308.261719
	C301.510681,304.429077 288.356750,300.163116 277.296051,292.628967
	C262.799561,282.754425 247.558105,279.791931 230.655319,281.277863
	C223.944733,281.867828 217.138931,281.374756 210.232086,281.374756
	C210.596268,283.546875 211.893509,284.058655 212.964340,284.739288
	C227.868546,294.212280 244.015732,300.674530 261.187744,304.676575
	C285.608948,310.368042 306.332916,322.391968 322.572083,341.554779
	C333.015717,353.878601 343.076904,366.511414 355.878326,377.596252
M373.691895,404.855347
	C353.955719,390.214294 335.710358,373.911957 320.700073,354.407745
	C306.953674,336.545868 289.599854,323.975433 268.483307,316.725037
	C256.245636,312.523224 243.118988,310.943451 231.407166,305.155914
	C223.790009,301.391815 215.927795,300.687836 207.682220,300.918671
	C198.881088,301.165039 190.067719,300.974121 180.291962,300.974121
	C196.610641,311.541840 212.937775,319.065613 230.873184,323.127625
	C246.556702,326.679535 261.163116,332.779358 274.506500,342.085175
	C288.596954,351.912018 298.367126,365.524078 308.940277,378.579407
	C328.608887,402.865479 352.470917,422.255035 380.987823,435.047668
	C405.582397,446.080719 430.498657,456.336914 453.709381,470.197174
	C454.941589,470.932953 456.478668,472.281738 457.821045,471.108612
	C462.625854,466.909698 467.737549,462.987366 472.330505,457.530609
	C471.106506,456.694183 470.431030,456.210938 469.734619,455.760010
	C458.956299,448.781036 447.955505,442.018921 435.952026,437.521729
	C414.013824,429.302399 393.003601,419.524567 373.691895,404.855347
z"/>
<path fill="#000000" opacity="1.000000" stroke="none"
	d="
M208.081665,720.218750
	C203.686935,720.197754 199.687180,720.215210 195.688141,720.169861
	C193.860062,720.149109 191.900070,720.185547 191.894913,716.889404
	C197.917770,715.416016 204.052521,716.162476 210.098419,716.144409
	C214.348190,716.131714 217.126556,714.637939 218.205673,710.036865
	C211.966171,707.957581 205.154068,710.844299 198.962433,708.336853
	C199.622757,705.080017 201.818451,705.778259 203.446930,705.738708
	C208.277008,705.621338 213.112381,705.740112 217.944046,705.663757
	C221.993622,705.599731 221.992615,705.535706 224.124344,700.895386
	C218.975174,699.794739 213.851624,700.617310 208.794296,700.316772
	C207.285965,700.227112 204.862411,700.986389 204.783447,698.600403
	C204.702972,696.168579 207.139572,696.614441 208.634628,696.741638
	C222.444031,697.917114 235.922760,693.849792 249.765427,694.496460
	C264.564819,695.187866 279.425110,694.468628 294.251099,694.759216
	C298.990326,694.852051 302.386292,693.596313 304.335571,689.284973
	C306.016632,685.566956 308.759583,684.299438 312.744720,684.598938
	C316.556427,684.885437 320.407257,684.606323 324.238464,684.688293
	C329.642883,684.803833 330.205017,685.894348 327.395050,690.502808
	C326.800140,691.478455 326.250031,692.481384 325.537720,693.717468
	C327.688660,695.036255 329.861176,694.633118 331.907288,694.638123
	C348.405365,694.678406 364.903595,694.675232 381.401703,694.650024
	C384.479889,694.645264 387.570007,694.660339 389.286774,697.777649
	C391.012299,700.910950 390.119812,703.908386 388.272217,706.703064
	C375.600128,725.871094 362.847290,744.986328 350.301239,764.236511
	C347.721283,768.195129 344.615540,769.515869 339.958313,769.460938
	C320.129883,769.227295 300.296936,769.404602 280.466370,769.295837
	C277.209442,769.278015 274.521454,769.764282 272.947510,772.921143
	C271.553711,775.716553 269.143219,776.314941 266.257660,776.218750
	C262.428741,776.091248 258.592804,776.184692 254.760117,776.156555
	C248.729370,776.112244 248.552032,775.883606 249.813156,769.970215
	C248.142441,768.927551 246.268311,769.399536 244.496353,769.394165
	C227.331726,769.342102 210.166763,769.306091 193.002319,769.372803
	C189.329422,769.387085 186.305969,768.797302 185.505615,764.561829
	C185.078308,762.300537 183.380295,762.349731 181.666870,762.348938
	C176.834198,762.346741 172.001038,762.365051 167.169159,762.297302
	C165.736954,762.277222 163.781998,762.486328 163.988403,760.224854
	C164.158813,758.357605 165.918182,758.760437 167.181412,758.754272
	C172.013840,758.730530 176.859818,758.546448 181.675232,758.840149
	C186.011520,759.104675 188.689880,757.508118 189.902359,752.966309
	C186.114609,751.385620 182.143692,752.464905 178.309357,752.183472
	C176.816360,752.073914 175.307755,752.184082 173.813248,752.086609
	C172.485138,751.999939 170.951950,751.920532 171.012817,750.036621
	C171.069992,748.266296 172.528870,747.968933 173.880081,747.946411
	C178.877991,747.862976 183.887909,747.666138 188.873230,747.914673
	C193.188385,748.129822 195.932266,746.610962 197.262222,741.318481
	C192.167770,741.318481 187.287888,741.413574 182.415497,741.263977
	C180.833725,741.215454 178.108337,742.187927 178.187286,739.340637
	C178.252045,737.004822 180.725983,737.747070 182.224487,737.707703
	C186.721008,737.589417 191.244446,737.374268 195.715988,737.724854
	C200.730957,738.118103 202.772385,735.321289 204.635117,730.832397
	C197.816696,729.542725 191.160767,731.344788 184.784668,729.610779
	C185.770432,726.093506 187.928391,726.832520 189.582886,726.796143
	C194.580048,726.686279 199.585693,726.605103 204.578552,726.781433
	C207.870087,726.897644 209.440552,725.014282 210.552231,722.442749
	C211.457520,720.348633 209.848511,720.337280 208.081665,720.218750
M344.973419,705.852478
	C349.212860,705.852478 353.452271,705.852478 357.691711,705.852478
	C345.370026,705.333252 333.055389,705.357788 320.740967,705.313904
	C318.069977,705.304382 316.521912,706.689331 315.152161,708.800415
	C305.452240,723.749817 295.668732,738.644958 285.955414,753.585754
	C285.095276,754.908752 283.705719,756.093262 284.093994,758.070557
	C284.552246,758.251404 284.995239,758.577454 285.439850,758.579590
	C299.267120,758.647644 313.095154,758.764526 326.921661,758.671509
	C330.608765,758.646729 332.203949,756.093750 332.819336,752.166687
	C327.771637,752.166687 323.124969,752.236328 318.482330,752.130005
	C316.796844,752.091370 314.187286,752.726318 314.116425,750.127625
	C314.031891,747.026672 316.917419,747.924438 318.682770,747.866821
	C323.343201,747.714539 328.018494,747.664734 332.675537,747.863098
	C336.898865,748.042969 339.101349,746.050964 340.172302,741.822998
	C335.237488,740.870667 330.437195,741.595459 325.696594,741.287964
	C324.039368,741.180542 321.320190,742.100037 321.205261,739.561401
	C321.079681,736.787170 323.879547,737.755188 325.473724,737.701660
	C329.967621,737.550598 334.489471,737.386536 338.963715,737.719604
	C344.010712,738.095276 346.079437,735.458801 347.420502,730.322876
	C341.670563,730.322876 336.406982,730.356384 331.144409,730.301025
	C329.704285,730.285889 327.759674,730.442139 328.010498,728.184021
	C328.215515,726.338074 329.975525,726.748169 331.236877,726.742126
	C336.402130,726.717468 341.575745,726.577332 346.730530,726.817444
	C351.076477,727.019897 352.933044,724.674194 354.159729,720.905823
	C352.376312,719.922485 350.692169,720.219299 349.080902,720.198792
	C345.415680,720.152100 341.748779,720.220764 338.084229,720.152344
	C336.807892,720.128601 335.146759,720.280762 334.999817,718.423218
	C334.836121,716.354675 336.551117,716.652954 337.815155,716.617249
	C342.804352,716.476501 347.818237,716.039307 352.778595,716.372620
	C357.838165,716.712646 359.872345,714.166260 361.281189,709.267883
	C355.615997,709.267883 350.484161,709.298828 345.353271,709.243286
	C344.248138,709.231384 342.845459,709.370239 342.431519,707.926941
	C342.060577,706.633545 343.117065,706.261230 344.973419,705.852478
M223.221268,739.669128
	C220.378372,743.976685 217.434006,748.221436 214.721466,752.609558
	C212.062531,756.910889 213.038757,758.697998 218.127991,758.737793
	C230.120361,758.831421 242.114395,758.707214 254.106857,758.796143
	C258.338837,758.827515 260.394592,756.809631 261.196838,752.158386
	C255.819778,752.158386 250.855377,752.184998 245.891556,752.143433
	C244.237503,752.129578 242.184158,752.213074 242.309738,749.805969
	C242.413971,747.807922 244.271591,747.846191 245.768005,747.838196
	C250.764908,747.811340 255.773117,747.632141 260.755951,747.901123
	C265.397583,748.151672 267.690063,746.071472 268.669098,741.325134
	C263.129578,741.325134 257.981445,741.368164 252.834915,741.296448
	C251.454102,741.277283 249.372543,741.678772 249.461349,739.451721
	C249.544952,737.356079 251.558517,737.701355 252.981384,737.682495
	C257.478088,737.622986 262.009888,737.306458 266.464661,737.740479
	C271.766541,738.257019 274.375427,735.572327 276.414307,730.755249
	C269.678375,729.647583 262.920563,731.162903 256.306458,729.757446
	C257.428650,726.147156 259.550537,726.834473 261.239380,726.801514
	C265.901581,726.710449 270.571136,726.634705 275.229218,726.797241
	C279.674896,726.952271 281.804657,724.751282 282.775787,720.193970
	C278.885345,720.193970 275.376648,720.475098 271.936768,720.109314
	C268.923309,719.788818 265.000183,721.957397 262.958832,717.971069
	C263.697571,716.354065 264.745178,716.480591 265.734009,716.457703
	C271.226349,716.330688 276.721649,716.032532 282.210144,716.127747
	C286.623474,716.204407 288.909515,714.108582 290.034790,709.752502
	C283.444092,708.423706 276.612030,710.555420 270.375061,707.541504
	C275.989838,704.692444 281.992188,706.463928 287.743408,705.514343
	C287.446045,705.400330 287.190277,705.216370 286.934662,705.216675
	C274.942261,705.230896 262.948608,705.365479 250.958237,705.223083
	C247.565109,705.182739 245.365646,706.335022 243.536850,709.138916
	C236.990143,719.176270 230.289810,729.113342 223.221268,739.669128
z"/>
<path fill="#000000" opacity="1.000000" stroke="none"
	d="
M408.541046,726.822510
	C414.314667,726.773499 419.656952,726.554504 424.972076,726.840393
	C429.503387,727.084106 432.119720,725.048523 433.950897,720.617065
	C427.554626,719.355774 420.898163,721.253662 414.771027,719.361450
	C415.425537,716.257507 416.972778,716.544006 418.223511,716.500000
	C423.046051,716.330322 427.903320,715.850342 432.687317,716.235474
	C437.796387,716.646790 440.944946,714.733032 442.992157,709.716919
	C436.707794,708.618530 430.378876,710.119629 424.354492,708.832153
	C424.037445,705.346313 426.312744,705.771790 427.983246,705.738403
	C432.978851,705.638672 437.980682,705.575684 442.973694,705.719543
	C446.342499,705.816650 448.775482,704.729492 450.395233,700.799377
	C445.329834,699.852661 440.435455,700.600830 435.621307,700.308350
	C434.013916,700.210754 431.320282,701.285706 431.473846,698.341370
	C431.595459,696.009705 434.033661,696.838928 435.550568,696.716492
	C470.876373,693.866211 506.275085,694.713562 541.656128,694.660034
	C542.822205,694.658264 543.990601,694.618835 545.153931,694.676514
	C549.528503,694.893250 550.272461,696.141235 547.884033,699.869080
	C543.753174,706.316467 539.432678,712.642395 535.190918,719.018738
	C524.861206,734.546326 514.474243,750.036499 504.255951,765.637085
	C502.512024,768.299622 500.626343,769.556946 497.379333,769.422363
	C491.774628,769.189941 486.153381,769.357971 481.144897,769.357971
	C479.196289,766.659729 481.563263,765.172607 481.046600,762.985107
	C477.911896,761.595154 474.408356,762.614136 471.034393,762.382446
	C469.210022,762.257263 467.365601,762.427979 465.540588,762.307800
	C464.160492,762.216980 462.125397,762.726135 462.059082,760.530884
	C461.988953,758.208801 464.042419,758.761780 465.413422,758.749146
	C470.076996,758.706238 474.755096,758.550720 479.401825,758.845337
	C483.998718,759.136780 487.148346,757.632385 488.886688,752.167969
	C485.091156,752.167969 481.512360,752.491150 478.022797,752.071716
	C474.901428,751.696594 469.201324,754.098267 469.267883,749.933533
	C469.331543,745.950317 475.075439,748.268188 478.263275,747.971191
	C482.630554,747.564392 487.064117,747.869446 491.497131,747.332397
	C490.173035,745.794617 488.518311,746.156738 486.989777,746.150391
	C472.330902,746.089600 457.671112,746.139832 443.013580,745.975769
	C439.578491,745.937317 437.045593,746.830688 434.819672,749.603027
	C430.132294,755.440979 425.139526,761.034180 420.253296,766.711548
	C419.401062,767.701721 418.729126,769.124451 417.238373,769.139954
	C410.487976,769.210022 403.736481,769.170654 397.351349,769.170654
	C395.964966,766.507446 398.178131,765.176514 398.086060,763.020447
	C394.162720,761.653809 390.013611,762.672791 385.973724,762.373474
	C384.646942,762.275146 383.309265,762.331604 381.979858,762.257935
	C380.935547,762.200134 379.898529,761.911499 379.810333,760.665833
	C379.695648,759.045837 380.943573,758.790405 382.153076,758.782837
	C387.483368,758.749512 392.825989,758.550964 398.140869,758.840088
	C402.694824,759.087708 405.224640,756.995544 407.250275,752.170837
	C402.092834,752.170837 397.519714,752.245056 392.951202,752.131714
	C391.294769,752.090637 388.721680,752.777039 388.787018,749.971130
	C388.850006,747.264221 391.378448,747.901001 393.059937,747.863037
	C397.555145,747.761597 402.068115,747.618896 406.548187,747.901794
	C411.147369,748.192200 414.227051,746.521240 416.024689,741.851990
	C411.016235,740.759094 406.065826,741.613953 401.183594,741.315491
	C399.783478,741.229919 397.767456,741.721741 397.771942,739.490173
	C397.776428,737.259033 399.799622,737.703857 401.192932,737.684753
	C405.856323,737.621033 410.549988,737.334412 415.177765,737.745239
	C420.427277,738.211365 423.060486,735.411987 425.784760,730.316650
	C419.824524,730.316650 414.594635,730.342285 409.365356,730.296265
	C408.247070,730.286438 406.873413,730.394226 406.485229,728.926819
	C406.156647,727.684387 407.092896,727.194580 408.541046,726.822510
M472.500000,734.752869
	C480.660065,734.763428 488.820099,734.776611 496.980164,734.782959
	C499.559326,734.784973 502.038757,734.634583 502.145599,730.845703
	C495.828979,729.217773 489.093719,731.748535 482.858765,729.365173
	C483.795532,726.274780 485.698517,726.798035 487.258087,726.780701
	C492.086792,726.727051 496.923035,726.623718 501.744080,726.828430
	C506.001648,727.009338 508.109131,724.935730 509.138092,720.815063
	C502.873260,718.738708 495.855988,722.221985 489.524292,718.486633
	C491.602966,716.142212 493.587250,716.396057 495.315552,716.317688
	C499.961273,716.107239 504.619659,716.115234 509.272461,716.140869
	C513.513611,716.164246 515.462280,713.905273 516.197876,709.695068
	C509.769073,708.554016 503.284393,710.425232 497.324860,707.757812
	C502.101898,704.418945 507.549866,706.665283 513.221069,705.294800
	C504.479401,705.294800 496.391541,706.093323 488.526398,705.110168
	C476.319336,703.584229 467.454865,707.403503 461.002563,717.914978
	C457.516693,723.593811 452.179565,728.020447 448.066681,734.751526
	C456.618011,734.751526 464.059021,734.751526 472.500000,734.752869
z"/>
<path fill="#000000" opacity="1.000000" stroke="none"
	d="
M758.999878,769.366455
	C744.339539,769.364502 730.179138,769.367676 716.018799,769.357971
	C709.342407,769.353394 709.285889,769.273804 711.032776,762.921997
	C704.876892,761.203735 698.285889,763.672852 691.876343,761.360840
	C693.004944,757.745422 695.721985,758.791443 697.721863,758.787415
	C724.709717,758.733521 751.697815,758.767334 778.685791,758.779541
	C783.683533,758.781799 788.688171,758.623535 793.677002,758.835571
	C798.082581,759.022888 800.385376,756.845459 801.827393,752.618530
	C796.656189,751.705200 791.705383,752.384766 786.801453,752.139648
	C785.262573,752.062744 782.975037,752.710083 782.872131,750.273926
	C782.755676,747.519226 785.205994,747.936951 786.928955,747.916260
	C792.984497,747.843384 799.041504,747.887939 805.097900,747.887939
	C805.107788,747.297058 805.117737,746.706238 805.127625,746.115356
	C803.436768,746.115356 801.745972,746.116638 800.055115,746.115173
	C780.064148,746.098083 760.073120,746.078491 740.082153,746.065002
	C736.059937,746.062256 732.039795,746.225281 729.264709,742.380798
	C728.284668,741.023010 726.538208,741.354980 725.058716,741.345947
	C719.894531,741.314331 714.729492,741.362610 709.566223,741.284607
	C708.168274,741.263489 706.098938,741.586182 706.179016,739.404053
	C706.257385,737.265991 708.329956,737.725281 709.708679,737.699158
	C714.205139,737.614014 718.741699,737.293640 723.192383,737.750305
	C728.564087,738.301514 731.066895,735.588745 732.825439,730.766174
	C726.160645,729.541992 719.360291,731.375793 712.781494,729.612915
	C713.840454,726.154663 715.969971,726.768555 717.647217,726.734314
	C722.309570,726.639160 726.990234,726.491638 731.635559,726.795593
	C735.927307,727.076355 738.165100,725.242798 739.087830,720.863708
	C732.894653,718.724243 725.743164,722.036926 719.899902,718.029175
	C725.747009,715.424622 731.743835,715.731750 737.550598,716.298584
	C742.681458,716.799438 744.849854,714.531982 746.403748,709.842590
	C740.888123,708.855103 735.607300,709.567444 730.380188,709.318237
	C729.028809,709.253784 726.963806,709.928833 727.005920,707.572693
	C727.045532,705.356506 729.080444,705.776611 730.453979,705.751648
	C735.783386,705.654541 741.116455,705.603333 746.445374,705.695435
	C749.601990,705.749939 751.440979,704.426392 752.165222,700.915405
	C747.185486,699.887207 742.232788,700.592346 737.344177,700.309021
	C735.726196,700.215271 732.946167,701.205566 733.012573,698.494385
	C733.075378,695.935120 735.858948,696.578125 737.465515,696.755127
	C749.642639,698.096069 761.465454,693.596802 773.605713,694.676453
	C775.359680,694.832520 777.574890,693.958801 778.700134,695.774231
	C780.012329,697.891357 778.080383,699.509644 777.027710,701.105042
	C771.067688,710.138184 765.032959,719.121948 759.057068,728.144653
	C758.063416,729.644958 756.654175,731.199585 757.610962,733.156311
	C758.617004,735.213928 760.740784,734.728210 762.511475,734.733093
	C778.337585,734.776611 794.163879,734.762939 809.990051,734.801392
	C812.814941,734.808289 815.262573,734.375000 816.258240,730.348083
	C810.862793,730.348083 805.753418,730.413330 800.647644,730.306946
	C799.182129,730.276367 796.778259,730.961975 796.972229,728.320007
	C797.124756,726.242371 799.212341,726.774902 800.613037,726.760315
	C805.110352,726.713440 809.619324,726.575317 814.103638,726.828369
	C818.585571,727.081299 821.368958,725.286926 822.974548,720.200928
	C819.084290,720.200928 815.488037,720.451721 811.945984,720.121338
	C809.127136,719.858398 805.205139,721.960266 803.973877,716.084412
	C809.405396,716.084412 814.882751,715.646301 820.255249,716.209534
	C825.466858,716.755859 828.463013,714.831421 830.293884,709.814758
	C823.615479,708.476562 816.645081,710.365967 810.168335,707.902405
	C817.973145,702.286194 829.005615,710.235657 837.187500,700.907959
	C829.512634,699.631165 823.028870,701.117920 816.946350,699.849609
	C816.443665,697.040100 818.012085,696.623352 819.549072,696.781250
	C832.183777,698.078308 844.493225,693.738831 857.092346,694.685852
	C858.978760,694.827698 861.389648,693.843262 862.515991,696.098083
	C863.508972,698.085815 861.598267,699.499084 860.646240,700.941711
	C846.524292,722.340027 832.286743,743.662292 818.233154,765.105164
	C816.141663,768.296326 813.677795,769.439209 809.978394,769.411682
	C793.153076,769.286255 776.326233,769.362488 758.999878,769.366455
z"/>
<path fill="#000000" opacity="1.000000" stroke="none"
	d="
M560.182861,726.698303
	C564.659729,726.727966 568.672668,726.551941 572.653442,726.831970
	C576.960999,727.135071 579.692627,725.550476 580.928528,720.986145
	C574.828247,718.567566 567.590820,722.198608 561.829895,717.831787
	C567.751160,716.322510 573.625305,715.646606 579.493896,716.282166
	C584.474915,716.821472 586.811768,714.477661 588.307068,709.820007
	C582.747192,708.875977 577.454956,709.568054 572.211182,709.302002
	C570.809875,709.230957 568.748230,709.720703 568.667053,707.591248
	C568.584045,705.414856 570.640625,705.746521 572.051636,705.729980
	C577.382935,705.667358 582.715698,705.739380 588.046875,705.672241
	C592.145874,705.620605 592.145142,705.561340 594.108337,700.766663
	C588.590637,699.903381 583.149902,700.519531 577.750122,700.345154
	C576.479797,700.304138 574.719299,700.755798 574.560242,698.877258
	C574.377563,696.719849 576.232971,696.597351 577.724976,696.732300
	C591.875244,698.011841 605.703857,694.094421 619.876343,694.477295
	C643.686035,695.120544 667.525696,694.645935 691.352722,694.667236
	C694.489319,694.669983 697.968506,694.198730 699.589600,697.867188
	C701.152954,701.404907 699.426575,704.331787 698.055481,707.698120
	C691.583557,723.588440 679.059265,722.780884 665.515869,720.598755
	C660.472107,719.786072 655.216492,720.316895 650.059753,720.161560
	C648.192444,720.105225 645.910034,720.657227 645.241760,717.362305
	C651.107544,715.675537 657.062012,715.679077 662.896362,716.382874
	C668.076355,717.007751 670.188049,714.709656 671.288574,709.925781
	C664.962402,708.453918 658.577148,710.258667 652.486572,707.850586
	C657.037659,704.185730 662.569031,706.723267 668.228455,705.328064
	C651.194214,705.328064 634.906860,705.346741 618.619690,705.308716
	C616.062927,705.302734 614.680969,706.891968 613.475403,708.725586
	C603.871826,723.332031 594.251892,737.928284 584.746033,752.598206
	C581.712769,757.279175 582.542297,758.727051 588.159912,758.739014
	C610.487183,758.786560 632.814941,758.698425 655.141724,758.809204
	C657.450256,758.820618 660.931763,757.266602 661.588013,761.395386
	C661.975464,763.833252 657.492859,768.982727 655.000671,769.311646
	C654.016174,769.441528 653.004150,769.375793 652.004639,769.375610
	C622.512451,769.370667 593.020081,769.320496 563.528137,769.405273
	C559.522034,769.416809 556.207947,768.930359 554.939026,764.460144
	C554.261597,762.073547 552.238770,762.378967 550.424316,762.367065
	C545.592712,762.335510 540.760681,762.345398 535.929504,762.285889
	C534.948547,762.273743 533.891418,762.165649 533.501770,760.781006
	C533.901428,758.187439 536.076111,758.802307 537.737976,758.772400
	C542.401794,758.688354 547.083618,758.515320 551.729248,758.820129
	C556.102234,759.106995 558.675903,757.362732 559.963989,752.944885
	C556.111938,751.447998 552.131287,752.486145 548.274231,752.204407
	C546.782349,752.095459 545.275391,752.213440 543.777283,752.164734
	C542.440369,752.121277 540.923889,752.141113 540.797363,750.294556
	C540.653503,748.192932 542.209045,747.880005 543.796204,747.866272
	C548.794250,747.823120 553.801819,747.650085 558.788391,747.888611
	C563.080994,748.093933 565.879700,746.651733 566.923767,741.759460
	C562.058472,740.847290 557.120361,741.637085 552.259338,741.287781
	C550.683167,741.174500 547.917847,742.361450 548.032593,739.440002
	C548.138611,736.737610 550.846252,737.767761 552.453247,737.709106
	C556.779663,737.551147 561.137024,737.381958 565.442200,737.721924
	C570.360901,738.110352 572.786194,735.635132 574.389404,731.036438
	C567.991272,729.176575 561.237793,731.633057 554.816833,729.453979
	C555.610840,726.044067 557.947144,726.955200 560.182861,726.698303
z"/>
</svg>
